<?xml version="1.0" standalone="no"?><!DOCTYPE svg PUBLIC "-//W3C//DTD SVG 1.1//EN" "http://www.w3.org/Graphics/SVG/1.1/DTD/svg11.dtd"><svg t="1731574633006" class="icon" viewBox="0 0 1024 1024" version="1.1" xmlns="http://www.w3.org/2000/svg" p-id="1733" xmlns:xlink="http://www.w3.org/1999/xlink" width="256" height="256"><path d="M614.4 136.533333L409.6 0H0v1024h1024V136.533333H614.4z m341.333333 819.2H68.266667V68.266667h320.853333l187.733333 124.928 17.066667 11.605333h361.813333v750.933333zM375.466667 136.533333H136.533333v68.266667h341.333334l-102.4-68.266667z m2.645333 370.005334L614.4 387.754667a100.437333 100.437333 0 0 1 0-12.288 102.4 102.4 0 1 1 31.402667 73.728L409.6 567.978667c0.256 4.096 0.256 8.192 0 12.288 0.256 4.096 0.256 8.192 0 12.288l236.202667 118.784A103.082667 103.082667 0 1 1 614.4 785.066667a100.437333 100.437333 0 0 1 0-12.288L378.112 653.994667a102.4 102.4 0 1 1 0-147.456z" p-id="1734"></path></svg>