<?xml version="1.0" standalone="no"?><!DOCTYPE svg PUBLIC "-//W3C//DTD SVG 1.1//EN" "http://www.w3.org/Graphics/SVG/1.1/DTD/svg11.dtd"><svg t="1746281359786" class="icon" viewBox="0 0 1024 1024" version="1.1" xmlns="http://www.w3.org/2000/svg" p-id="9091" xmlns:xlink="http://www.w3.org/1999/xlink" width="256" height="256"><path d="M512 425.344c82.24 0 159.68 59.2 234.112 172.928l11.456 17.536-11.52 17.536C671.744 747.072 594.304 806.272 512 806.272c-82.24 0-159.68-59.2-234.112-172.928l-11.456-17.536 11.52-17.536C352.256 484.544 429.696 425.344 512 425.344z m0 64c-50.112 0-104 37.12-160.512 114.88l-8.192 11.52 8.192 11.648c53.184 73.088 104.064 110.336 151.68 114.496l8.832 0.384c50.112 0 104-37.184 160.512-114.88l8.192-11.648-8.192-11.52C616 526.528 562.112 489.344 512 489.344z m0 60.928a64 64 0 1 1 0 128 64 64 0 0 1 0-128zM895.424 96H126.848a64 64 0 0 0-64 64v704a64 64 0 0 0 64 64h768.64a64 64 0 0 0 64-64v-704a64 64 0 0 0-64-64z m-768.64 64h768.64v128H126.848v-128z m0 704v-512h768.64v512H126.848z" fill="#1296db" p-id="9092"></path></svg>