<?xml version="1.0" standalone="no"?><!DOCTYPE svg PUBLIC "-//W3C//DTD SVG 1.1//EN" "http://www.w3.org/Graphics/SVG/1.1/DTD/svg11.dtd"><svg t="1746284006636" class="icon" viewBox="0 0 1045 1024" version="1.1" xmlns="http://www.w3.org/2000/svg" p-id="15055" xmlns:xlink="http://www.w3.org/1999/xlink" width="261.25" height="256"><path d="M853.333333 10.666667H341.333333A117.333333 117.333333 0 0 0 224 128v42.666667A32 32 0 0 0 256 202.666667h448l3.477333 0.085333C734.976 204.117333 757.333333 227.541333 757.333333 256v597.333333a32 32 0 0 0 32 32h64a117.333333 117.333333 0 0 0 117.333334-117.333333V128A117.333333 117.333333 0 0 0 853.333333 10.666667z m-512 64h512A53.333333 53.333333 0 0 1 906.666667 128v640l-0.106667 3.498667A53.333333 53.333333 0 0 1 853.333333 821.333333h-32V256a117.333333 117.333333 0 0 0-111.509333-117.184l-5.034667-0.149333H288V128A53.333333 53.333333 0 0 1 341.333333 74.666667z" fill="#1296db" p-id="15056"></path><path d="M704 138.666667H192A117.333333 117.333333 0 0 0 74.666667 256v640A117.333333 117.333333 0 0 0 192 1013.333333h512a117.333333 117.333333 0 0 0 117.333333-117.333333V256A117.333333 117.333333 0 0 0 704 138.666667z m-512 64h512a53.333333 53.333333 0 0 1 53.333333 53.333333v640a53.333333 53.333333 0 0 1-53.333333 53.333333H192A53.333333 53.333333 0 0 1 138.666667 896V256A53.333333 53.333333 0 0 1 192 202.666667z" fill="#1296db" p-id="15057"></path><path d="M618.666667 554.666667a32 32 0 0 1 3.072 63.850666L618.666667 618.666667H277.333333a32 32 0 0 1-3.072-63.850667L277.333333 554.666667h341.333334zM448 746.666667a32 32 0 0 1 3.072 63.850666L448 810.666667h-170.666667a32 32 0 0 1-3.072-63.850667L277.333333 746.666667h170.666667zM618.666667 362.666667a32 32 0 0 1 3.072 63.850666L618.666667 426.666667H277.333333a32 32 0 0 1-3.072-63.850667L277.333333 362.666667h341.333334z" fill="#1296db" p-id="15058"></path></svg>