<?xml version="1.0" standalone="no"?><!DOCTYPE svg PUBLIC "-//W3C//DTD SVG 1.1//EN" "http://www.w3.org/Graphics/SVG/1.1/DTD/svg11.dtd"><svg t="1731574801401" class="icon" viewBox="0 0 1024 1024" version="1.1" xmlns="http://www.w3.org/2000/svg" p-id="2790" width="256" height="256" xmlns:xlink="http://www.w3.org/1999/xlink"><path d="M892.8 120.32H758.4V77.696a44.8 44.8 0 0 0-89.6 0v42.624H355.2V77.696a44.8 44.8 0 0 0-89.6 0v42.624H131.2a65.856 65.856 0 0 0-67.2 64v682.688a65.856 65.856 0 0 0 67.2 64h761.6a65.856 65.856 0 0 0 67.2-64V184.32a65.856 65.856 0 0 0-67.2-64z m-291.2 512H243.2a42.688 42.688 0 1 1 0-85.313h358.4a42.688 42.688 0 1 1 0 85.313z m179.2-213.31H243.2a42.688 42.688 0 1 1 0-85.313h537.6a42.688 42.688 0 1 1 0 85.312z" p-id="2791"></path></svg>