<?xml version="1.0" standalone="no"?><!DOCTYPE svg PUBLIC "-//W3C//DTD SVG 1.1//EN" "http://www.w3.org/Graphics/SVG/1.1/DTD/svg11.dtd"><svg t="1731576069492" class="icon" viewBox="0 0 1024 1024" version="1.1" xmlns="http://www.w3.org/2000/svg" p-id="28216" xmlns:xlink="http://www.w3.org/1999/xlink" width="256" height="256"><path d="M142.848 912.384v-51.712c0-176.128 136.192-321.024 309.248-337.408h0.512c10.752-1.024 21.504-1.536 32.256-1.536h4.608c38.4-3.072 96.256-11.776 126.464-38.912l14.848-11.776c57.344-44.032 91.136-112.64 91.136-184.832 0-130.048-106.496-235.52-237.568-235.52S247.296 156.672 247.296 286.72c0 72.192 33.28 139.776 91.136 184.832l14.848 11.776-17.408 7.168C181.248 550.912 81.92 696.32 81.92 860.672v81.92c0 16.896 13.824 30.208 30.72 30.208h446.976c-14.848-18.944-27.136-38.912-36.864-60.416H142.848zM309.248 284.672c0-95.744 79.36-173.568 176.64-173.568s176.64 77.824 176.64 173.568-79.36 173.568-176.64 173.568c-97.792 0-176.64-77.824-176.64-173.568z" p-id="28217"></path><path d="M696.832 650.24c-49.664 0-90.112 40.448-90.112 90.112 0 49.664 40.448 90.112 90.112 90.112s90.112-40.448 90.112-90.112-40.448-90.112-90.112-90.112z m3.072 137.728c-24.576 0-45.056-19.968-45.056-45.056s19.968-45.056 45.056-45.056 45.056 19.968 45.056 45.056-19.968 45.056-45.056 45.056z m243.712-92.672c-3.584-17.92-14.848-29.696-30.208-29.696h-2.048c-28.672 0-51.712-22.528-51.712-51.2 0-7.168 3.072-16.384 4.608-19.456 7.168-16.384 1.024-36.352-13.824-46.08l-60.416-33.28c-14.848-6.144-32.768-2.56-44.032 8.704-7.68 7.68-27.648 23.552-41.472 23.552s-34.304-15.872-41.472-23.552c-11.264-11.264-29.184-14.848-44.032-9.216l-1.024 0.512-61.44 33.792-1.536 1.024c-14.336 9.728-19.456 29.184-12.8 45.056 0.512 1.024 4.608 10.752 4.608 19.456 0 28.672-23.04 51.2-51.712 51.2h-2.56c-14.336 0-26.112 11.264-29.696 29.696-3.072 15.36-4.608 31.744-5.12 47.616 0 19.968 4.608 45.056 5.12 47.616 3.584 17.92 14.848 29.696 30.208 29.696h2.048c28.672 0 51.712 23.04 51.712 51.2 0 7.168-3.072 16.384-4.608 19.456-7.168 16.384-1.024 36.352 13.824 46.08l59.392 32.768c15.36 6.144 33.28 2.56 44.544-9.216 7.168-7.68 28.16-25.088 42.496-25.088s34.816 16.896 42.496 25.6c11.776 12.288 30.72 15.872 46.08 8.704l59.904-33.28 1.536-1.024c14.336-9.728 19.456-29.184 12.8-45.056-2.56-6.144-4.096-12.8-4.608-19.456 0-28.672 23.04-51.2 51.712-51.2h2.56c14.336 0 26.112-11.264 29.696-29.696 0-0.512 5.12-26.112 5.12-47.616-1.024-19.456-5.632-44.544-6.144-47.616z m-45.568 79.36c-49.152 6.144-85.504 48.128-85.504 97.28 0 11.264 3.072 22.016 5.12 29.696l-43.008 23.552c-5.632-5.632-11.264-10.24-17.408-15.36-18.944-13.824-37.376-20.992-54.784-20.992-16.896 0-35.84 7.168-54.272 20.48-6.144 4.608-11.776 9.216-17.408 14.848l-41.472-23.04c2.56-7.168 5.12-18.432 5.12-30.208 0-49.664-36.864-91.136-85.504-97.792-1.536-10.24-2.56-20.48-3.072-31.744 0-10.24 1.536-23.04 3.072-31.744 49.152-6.144 85.504-48.128 85.504-97.792 0-11.264-2.56-22.016-5.12-29.696l44.544-24.064c3.584 3.584 9.728 9.216 17.408 14.336 18.432 13.312 36.864 19.968 53.76 19.968 16.384 0 34.816-6.656 53.248-19.456 7.68-5.12 13.824-10.752 17.408-13.824l42.496 23.552c-3.072 9.728-5.12 19.456-5.12 30.208 0 49.664 37.376 91.136 85.504 97.28 1.024 8.192 3.072 20.992 3.072 31.744-1.024 11.776-2.56 24.576-3.584 32.768z" p-id="28218"></path></svg>