<?xml version="1.0" standalone="no"?><!DOCTYPE svg PUBLIC "-//W3C//DTD SVG 1.1//EN" "http://www.w3.org/Graphics/SVG/1.1/DTD/svg11.dtd"><svg t="1753612649573" class="icon" viewBox="0 0 1024 1024" version="1.1" xmlns="http://www.w3.org/2000/svg" p-id="4452" xmlns:xlink="http://www.w3.org/1999/xlink" width="200" height="200"><path d="M182.237288 711.59322h225.627119v86.779661H182.237288z" p-id="4453" fill="#1296db"></path><path d="M477.288136 937.220339H86.779661V190.915254h104.135593v69.423729h86.779661v-69.423729h295.050848v69.423729h86.779661v-69.423729h104.135593v226.061017A326.378305 326.378305 0 0 1 850.440678 433.898305V104.135593H659.525424V0H572.745763v104.135593H277.694915V0H190.915254v104.135593H0v919.864407h568.580339A329.762712 329.762712 0 0 1 477.288136 937.220339z" p-id="4454" fill="#1296db"></path><path d="M490.652203 538.033898H182.237288v86.779661h257.475254a330.717288 330.717288 0 0 1 50.939661-86.779661zM668.20339 425.914576V364.474576H182.237288v86.779661h416.542373a326.204746 326.204746 0 0 1 69.423729-25.339661zM746.305085 468.610169a277.694915 277.694915 0 1 0 277.694915 277.694916 277.694915 277.694915 0 0 0-277.694915-277.694916z m0 468.61017a190.915254 190.915254 0 1 1 190.915254-190.915254 190.915254 190.915254 0 0 1-190.915254 190.915254z" p-id="4455" fill="#1296db"></path><path d="M789.694915 616.135593H702.915254v164.01356l80.357966 90.424406 64.911187-57.621695L789.694915 747.172881V616.135593z" p-id="4456" fill="#1296db"></path></svg>