<?xml version="1.0" standalone="no"?><!DOCTYPE svg PUBLIC "-//W3C//DTD SVG 1.1//EN" "http://www.w3.org/Graphics/SVG/1.1/DTD/svg11.dtd"><svg t="1746274840938" class="icon" viewBox="0 0 1024 1024" version="1.1" xmlns="http://www.w3.org/2000/svg" p-id="2660" xmlns:xlink="http://www.w3.org/1999/xlink" width="256" height="256"><path d="M957.363495 615.996032a27.974595 27.974595 0 0 0-10.860351-18.433007L722.457581 428.74686 848.812197 254.827651c4.393492-6.017374 6.166861-13.52143 4.993489-20.861663C839.425216 144.542915 763.318796 79.637801 672.859552 79.637801c-9.76889 0-19.647335 0.791463-29.36196 2.346745a27.877326 27.877326 0 0 0-17.600588 10.437487l-129.20409 166.206281L276.857568 92.968787c-5.894508-4.461068-13.234742-6.358328-20.711152-5.348776a28.044219 28.044219 0 0 0-18.419697 10.860351L68.745708 322.74606c-9.277425 12.320412-6.822148 29.83909 5.512599 39.13085l215.777689 162.594013-83.240853 107.078951a27.899851 27.899851 0 0 0-5.280177 11.379462l-55.653287 263.860368a27.948998 27.948998 0 0 0 9.932712 27.628521 27.968452 27.968452 0 0 0 17.410146 6.084951c3.983938 0 7.995521-0.845729 11.747036-2.592478l245.973091-113.913386a27.651047 27.651047 0 0 0 10.860352-8.92316l82.74734-113.897004 219.329547 165.293999a27.785176 27.785176 0 0 0 16.782505 5.621131c8.486985 0 16.83677-3.834451 22.349369-11.119395l169.020941-224.265698a27.97869 27.97869 0 0 0 5.348777-20.711153zM662.872574 135.905419c62.462124-4.69349 118.62121 36.36124 133.519766 96.012798l-53.865583 74.141584c-13.043275-25.833651-32.161262-48.348889-56.295263-65.777465-23.834003-17.241205-50.865599-28.258211-79.125858-32.638392l55.766938-71.738525zM130.198282 334.056922l135.361735-179.636585 36.544515 27.540467-28.222375 37.458845c-9.278449 12.320412-6.822148 29.83909 5.511575 39.130849a27.791319 27.791319 0 0 0 16.782504 5.621131c8.486985 0 16.864415-3.833427 22.348345-11.133729l28.210089-37.443487 41.333226 31.14864-26.346617 34.94623c-9.277425 12.320412-6.822148 29.83909 5.512599 39.130849a27.715552 27.715552 0 0 0 16.782504 5.635465c8.486985 0 16.83677-3.834451 22.348345-11.119395l26.347641-34.948277 29.67834 22.365751L324.339226 480.343514 130.198282 334.056922z m118.741005 354.793671a28.791655 28.791655 0 0 0 1.939239-0.227303c58.178188-9.414626 113.518166 30.440111 122.931767 88.849697a27.821012 27.821012 0 0 0 3.530357 9.756603l-165.292975 76.554882 36.891612-174.933879z m174.502823 56.398675c-20.436751-64.552898-79.165789-109.633545-145.9569-113.58779l287.227478-369.484378c31.477307-3.53138 62.864511 4.67506 88.800551 23.402947 25.300206 18.275329 42.690899 44.592254 49.584718 74.749772l-40.408658 55.619499c-0.483274 0.547779-239.247188 329.29995-239.247189 329.29995z m331.744989 59.77033L557.386789 655.957253l132.218407-181.990497 29.039436 21.880429-29.738749 39.472827c-9.277425 12.320412-6.822148 29.83909 5.512598 39.13085a27.785176 27.785176 0 0 0 16.782504 5.62113c8.486985 0 16.863391-3.834451 22.348345-11.133729l29.730559-39.460541 39.361223 29.657863-28.023741 37.186491c-9.277425 12.333723-6.822148 29.853424 5.512598 39.14416a27.785176 27.785176 0 0 0 16.782505 5.62113c8.485962 0 16.864415-3.834451 22.348345-11.119394l28.027837-37.191611 43.275537 32.607676-135.377094 179.635561z" fill="#1296db" p-id="2661"></path></svg>