<?xml version="1.0" standalone="no"?><!DOCTYPE svg PUBLIC "-//W3C//DTD SVG 1.1//EN" "http://www.w3.org/Graphics/SVG/1.1/DTD/svg11.dtd"><svg t="1746281489562" class="icon" viewBox="0 0 1024 1024" version="1.1" xmlns="http://www.w3.org/2000/svg" p-id="10146" xmlns:xlink="http://www.w3.org/1999/xlink" width="256" height="256"><path d="M966.656 442.368c-30.72-30.72-83.968-30.72-116.736 0L456.704 833.536l-36.864 153.6 153.6-36.864 393.216-393.216c30.72-30.72 30.72-81.92 0-114.688zM491.52 915.456l12.288-51.2 319.488-319.488 38.912 38.912-319.488 319.488-51.2 12.288z m436.224-395.264L901.12 546.816l-38.912-38.912 26.624-26.624c6.144-6.144 12.288-8.192 20.48-8.192 6.144 0 12.288 4.096 18.432 8.192 10.24 10.24 10.24 28.672 0 38.912zM909.312 266.24V145.408c0-61.44-49.152-110.592-110.592-110.592H145.408c-61.44 0-110.592 49.152-110.592 110.592v604.16c0 61.44 49.152 110.592 110.592 110.592h237.568c20.48 0 36.864-16.384 36.864-36.864s-16.384-36.864-36.864-36.864H145.408c-20.48 0-36.864-16.384-36.864-36.864V145.408c0-20.48 16.384-36.864 36.864-36.864H798.72c20.48 0 36.864 16.384 36.864 36.864V266.24c0 20.48 16.384 36.864 36.864 36.864s36.864-16.384 36.864-36.864z" p-id="10147"></path><path d="M481.28 305.152H217.088c-20.48 0-34.816-16.384-34.816-34.816 0-20.48 16.384-34.816 34.816-34.816h262.144c20.48 0 34.816 16.384 34.816 34.816 2.048 18.432-14.336 34.816-32.768 34.816zM681.984 489.472H217.088c-20.48 0-34.816-16.384-34.816-34.816 0-20.48 16.384-34.816 34.816-34.816h464.896c20.48 0 34.816 16.384 34.816 34.816 2.048 18.432-14.336 34.816-34.816 34.816z" p-id="10148"></path></svg>